{
  "accessors": [
    {
      "bufferView": 2,
      "componentType": 5126,
      "count": 20865,
      "max": [
        0.21994100511074066,
        0.007169470191001892,
        0.6135500073432922
      ],
      "min": [
        -0.16012300550937653,
        -1.5435199737548828,
        -0.989031970500946
      ],
      "type": "VEC3"
    },
    {
      "bufferView": 2,
      "byteOffset": 250380,
      "componentType": 5126,
      "count": 20865,
      "max": [
        0.9999237656593323,
        0.9994938969612122,
        0.9999065399169922
      ],
      "min": [
        -0.9999647736549377,
        -0.9999816417694092,
        -0.9999353289604187
      ],
      "type": "VEC3"
    },
    {
      "bufferView": 1,
      "componentType": 5126,
      "count": 20865,
      "max": [
        0.9983100295066833,
        1.9980499744415283
      ],
      "min": [
        0.5015339851379395,
        1.501729965209961
      ],
      "type": "VEC2"
    },
    {
      "bufferView": 0,
      "componentType": 5125,
      "count": 112494,
      "type": "SCALAR"
    }
  ],
  "asset": {
    "extras": {
      "author": "T0ndji (https://sketchfab.com/T0ndji)",
      "license": "CC-BY-4.0 (http://creativecommons.org/licenses/by/4.0/)",
      "source": "https://sketchfab.com/3d-models/female-girl-05-678a6af7b9e2448e93bef7a643fe19b3",
      "title": "Female Girl 05"
    },
    "generator": "Sketchfab-16.12.0",
    "version": "2.0"
  },
  "bufferViews": [
    {
      "buffer": 0,
      "byteLength": 449976,
      "name": "floatBufferViews",
      "target": 34963
    },
    {
      "buffer": 0,
      "byteLength": 166920,
      "byteOffset": 449976,
      "byteStride": 8,
      "name": "floatBufferViews",
      "target": 34962
    },
    {
      "buffer": 0,
      "byteLength": 500760,
      "byteOffset": 616896,
      "byteStride": 12,
      "name": "floatBufferViews",
      "target": 34962
    }
  ],
  "buffers": [
    {
      "byteLength": 1117656,
      "uri": "scene.bin"
    }
  ],
  "images": [
    {
      "uri": "textures/object_0_baseColor.jpeg"
    }
  ],
  "materials": [
    {
      "doubleSided": true,
      "name": "object_0",
      "pbrMetallicRoughness": {
        "baseColorTexture": {
          "index": 0
        },
        "metallicFactor": 0.0
      }
    }
  ],
  "meshes": [
    {
      "name": "Object_0",
      "primitives": [
        {
          "attributes": {
            "NORMAL": 1,
            "POSITION": 0,
            "TEXCOORD_0": 2
          },
          "indices": 3,
          "material": 0,
          "mode": 4
        }
      ]
    }
  ],
  "nodes": [
    {
      "children": [
        1
      ],
      "matrix": [
        1.0,
        0.0,
        0.0,
        0.0,
        0.0,
        -1.0,
        0.0,
        0.0,
        0.0,
        0.0,
        -1.0,
        0.0,
        0.0,
        0.0,
        0.0,
        1.0
      ],
      "name": "Sketchfab_model"
    },
    {
      "children": [
        2
      ],
      "name": "model.obj.cleaner.materialmerger.gles"
    },
    {
      "mesh": 0,
      "name": "Object_2"
    }
  ],
  "samplers": [
    {
      "magFilter": 9729,
      "minFilter": 9987,
      "wrapS": 10497,
      "wrapT": 10497
    }
  ],
  "scene": 0,
  "scenes": [
    {
      "name": "Sketchfab_Scene",
      "nodes": [
        0
      ]
    }
  ],
  "textures": [
    {
      "sampler": 0,
      "source": 0
    }
  ]
}
